# xmcd
#
# Track frame offsets: 
#        150
#        18203
#        42439
#        62167
#        77644
#        98933
#        116839
#        130134
#        144992
#        165066
#        183786
#        197878
#        212512
#        227265
#
# Disc length: 3218 seconds
#
# Revision: 0
# Processed by: cddbd v1.5.2PL0 Copyright (c) Steve Scherf et al.
# Submitted via: ExactAudioCopy v0.95a4
#
DISCID=ad0c900e
DTITLE=林志炫 詹兆源 - 原声之旅
DYEAR=2006
DGENRE=Pop
TTITLE0=走了
TTITLE1=进退两难
TTITLE2=出嫁
TTITLE3=邂逅
TTITLE4=让爱做主
TTITLE5=你的愁 我的梦
TTITLE6=Fire
TTITLE7=漂鸟
TTITLE8=输了你赢了世界又如何
TTITLE9=暗恋你
TTITLE10=时机
TTITLE11=进退两难II
TTITLE12=别以为我不会走
TTITLE13=我的歌我的心
EXTD=
EXTT0=
EXTT1=
EXTT2=
EXTT3=
EXTT4=
EXTT5=
EXTT6=
EXTT7=
EXTT8=
EXTT9=
EXTT10=
EXTT11=
EXTT12=
EXTT13=
PLAYORDER=
